<svg width="24" height="24" viewBox="0 0 24 24" fill="none" xmlns="http://www.w3.org/2000/svg">
<g clip-path="url(#clip0_124_146)">
<path d="M10.3906 22.4365C10.8223 22.4365 11.1727 22.7862 11.1729 23.2178C11.1729 23.6496 10.8224 24 10.3906 24C9.95913 23.9997 9.60938 23.6494 9.60938 23.2178C9.6095 22.7863 9.95921 22.4368 10.3906 22.4365ZM13.5947 22.4365C14.0262 22.4368 14.3759 22.7863 14.376 23.2178C14.376 23.6494 14.0262 23.9998 13.5947 24C13.1629 24 12.8125 23.6496 12.8125 23.2178C12.8126 22.7862 13.163 22.4365 13.5947 22.4365ZM7.18262 22.6611C7.4901 22.6613 7.73908 22.9102 7.73926 23.2178C7.73926 23.5254 7.49021 23.7752 7.18262 23.7754C6.87486 23.7754 6.625 23.5255 6.625 23.2178C6.62518 22.9101 6.87497 22.6611 7.18262 22.6611ZM16.792 22.6611C17.0995 22.6613 17.3485 22.9103 17.3486 23.2178C17.3486 23.5253 17.0996 23.7752 16.792 23.7754C16.4843 23.7754 16.2344 23.5255 16.2344 23.2178C16.2346 22.9101 16.4844 22.6611 16.792 22.6611ZM3.97168 23.0107C4.08566 23.0107 4.17871 23.1038 4.17871 23.2178C4.17862 23.3317 4.0856 23.4238 3.97168 23.4238C3.8579 23.4237 3.76572 23.3316 3.76562 23.2178C3.76562 23.1039 3.85785 23.0109 3.97168 23.0107ZM20.0029 23.0107C20.1168 23.0107 20.21 23.1038 20.21 23.2178C20.2099 23.3317 20.1168 23.4238 20.0029 23.4238C19.8892 23.4236 19.797 23.3316 19.7969 23.2178C19.7969 23.1039 19.8891 23.0109 20.0029 23.0107ZM12.3291 5.93359C13.2771 5.01274 14.8944 5.38779 15.2773 6.66211L15.585 6.14355C17.197 4.48779 19.504 6.86141 17.8018 8.42578L17.3184 8.70312C17.9962 8.88682 18.517 9.52642 18.5498 10.2266L18.6543 9.89355C19.1822 8.50422 21.2055 8.72135 21.4287 10.1494C21.6955 11.8547 19.3078 12.4995 18.6631 10.9062L18.5498 10.5508C18.5212 11.1513 18.1134 11.7644 17.5449 11.9766L17.999 12.2832C18.3058 12.5832 18.5387 12.9979 18.5498 13.4336L18.6631 13.0781C19.1471 11.8331 20.9593 11.8705 21.3691 13.125C21.9459 14.8922 19.4008 15.8337 18.6729 14.1357L18.5498 13.7578C18.5154 14.48 18.0054 15.041 17.3506 15.2969C18.2936 15.6546 18.6956 16.7903 18.1543 17.6553C17.4503 18.7808 15.7521 18.5814 15.293 17.3535C15.0371 18.0082 14.4768 18.5182 13.7549 18.5527L14.0869 18.6572C15.4765 19.1849 15.2592 21.2084 13.8311 21.4316C12.126 21.6982 11.481 19.3108 13.0742 18.666L13.4307 18.5527C12.8302 18.5242 12.2172 18.1173 12.0049 17.5488L11.6973 18.002C11.3973 18.3088 10.9826 18.5417 10.5469 18.5527L10.8799 18.6572C12.5239 19.2819 11.8367 21.7346 10.1182 21.4277C8.70658 21.1753 8.51694 19.1788 9.89062 18.6572L10.2227 18.5527C9.52283 18.5199 8.88404 17.9997 8.7002 17.3223L8.39258 17.8398C6.43841 19.7262 4.19977 16.3979 6.65918 15.2969C5.1328 14.7924 4.97391 12.6926 6.43262 11.9922C4.98349 11.3095 5.12448 9.17062 6.65918 8.70312L6.31152 8.5166C4.27706 6.95242 6.94432 4.27894 8.51367 6.31543L8.7002 6.66211C9.1536 5.13671 11.3257 4.97936 11.9727 6.43555L12.3291 5.93359ZM16.7959 18.7617C17.4858 18.7617 18.0449 19.3207 18.0449 20.0107C18.0449 20.7006 17.4858 21.2598 16.7959 21.2598C16.1061 21.2596 15.5469 20.7005 15.5469 20.0107C15.5469 19.3208 16.106 18.7619 16.7959 18.7617ZM7.18164 18.7666C7.86872 18.7666 8.42578 19.3237 8.42578 20.0107C8.4257 20.6978 7.86867 21.2549 7.18164 21.2549C6.4946 21.2549 5.93758 20.6978 5.9375 20.0107C5.9375 19.3236 6.49455 18.7666 7.18164 18.7666ZM20.0068 19.2383C20.4335 19.2383 20.7803 19.584 20.7803 20.0107C20.7802 20.4375 20.4335 20.7832 20.0068 20.7832C19.5802 20.7831 19.2345 20.4374 19.2344 20.0107C19.2344 19.5841 19.5802 19.2384 20.0068 19.2383ZM3.96973 19.2441C4.39273 19.2443 4.73535 19.5878 4.73535 20.0107C4.73533 20.4338 4.39271 20.7771 3.96973 20.7773C3.54657 20.7773 3.20315 20.4339 3.20312 20.0107C3.20312 19.5876 3.54656 19.2441 3.96973 19.2441ZM0.768555 19.8037C0.882534 19.8037 0.975586 19.8967 0.975586 20.0107C0.975455 20.1246 0.882453 20.2168 0.768555 20.2168C0.654805 20.2166 0.562631 20.1245 0.5625 20.0107C0.5625 19.8968 0.654724 19.8039 0.768555 19.8037ZM23.2217 19.8037C23.3357 19.8037 23.4287 19.8967 23.4287 20.0107C23.4286 20.1246 23.3356 20.2168 23.2217 20.2168C23.1079 20.2166 23.0158 20.1245 23.0156 20.0107C23.0156 19.8968 23.1078 19.8039 23.2217 19.8037ZM20.0146 15.5537C20.7046 15.5537 21.2645 16.1129 21.2646 16.8027C21.2646 17.4926 20.7046 18.0518 20.0146 18.0518C19.3248 18.0516 18.7656 17.4925 18.7656 16.8027C18.7658 16.1129 19.3249 15.5538 20.0146 15.5537ZM3.9707 15.5674C4.65334 15.5674 5.20678 16.1202 5.20703 16.8027C5.20703 17.4855 4.6535 18.0391 3.9707 18.0391C3.2879 18.0391 2.73438 17.4855 2.73438 16.8027C2.73463 16.1201 3.28806 15.5674 3.9707 15.5674ZM23.2295 16.2461C23.537 16.2463 23.7859 16.4952 23.7861 16.8027C23.7861 17.1103 23.5371 17.3601 23.2295 17.3604C22.9218 17.3604 22.6719 17.1104 22.6719 16.8027C22.6721 16.4951 22.9219 16.2461 23.2295 16.2461ZM0.760742 16.2607C1.05993 16.2607 1.30248 16.5036 1.30273 16.8027C1.30273 17.1021 1.06009 17.3457 0.760742 17.3457C0.461405 17.3457 0.21875 17.1021 0.21875 16.8027C0.219001 16.5037 0.46156 16.2608 0.760742 16.2607ZM11.998 8.40039C10.0101 8.40063 8.3986 10.012 8.39844 12C8.39844 13.9881 10.01 15.6003 11.998 15.6006C13.9863 15.6006 15.5986 13.9883 15.5986 12C15.5985 10.0119 13.9862 8.40039 11.998 8.40039ZM3.97949 12.1631C4.77072 12.1631 5.41211 12.8044 5.41211 13.5957C5.41211 14.3869 4.77072 15.0283 3.97949 15.0283C3.18828 15.0283 2.54688 14.3869 2.54688 13.5957C2.54688 12.8044 3.18828 12.1631 3.97949 12.1631ZM23.2197 12.8145C23.6512 12.8147 24.0009 13.1642 24.001 13.5957C24.001 14.0274 23.6512 14.3777 23.2197 14.3779C22.7879 14.3779 22.4375 14.0275 22.4375 13.5957C22.4376 13.1641 22.788 12.8145 23.2197 12.8145ZM0.766602 12.8291C1.1896 12.8293 1.53223 13.1726 1.53223 13.5957C1.53217 14.0187 1.18956 14.3611 0.766602 14.3613C0.343465 14.3613 5.56544e-05 14.0189 0 13.5957C0 13.1725 0.343431 12.8291 0.766602 12.8291ZM3.97949 8.95605C4.77072 8.95605 5.41211 9.59744 5.41211 10.3887C5.41196 11.1797 4.77063 11.8213 3.97949 11.8213C3.18837 11.8213 2.54702 11.1797 2.54688 10.3887C2.54688 9.59745 3.18828 8.95607 3.97949 8.95605ZM23.2197 9.60645C23.6512 9.60668 24.001 9.9571 24.001 10.3887C24.0008 10.8202 23.6511 11.1697 23.2197 11.1699C22.788 11.1699 22.4377 10.8203 22.4375 10.3887C22.4375 9.95696 22.7879 9.60645 23.2197 9.60645ZM0.766602 9.62207C1.1896 9.62228 1.53223 9.96561 1.53223 10.3887C1.53213 10.8116 1.18954 11.1541 0.766602 11.1543C0.343488 11.1543 9.27733e-05 10.8117 0 10.3887C0 9.96548 0.343431 9.62207 0.766602 9.62207ZM20.0098 5.93652C20.6967 5.93656 21.2537 6.49379 21.2539 7.18066C21.2539 7.86772 20.6968 8.42477 20.0098 8.4248C19.3227 8.4248 18.7656 7.86774 18.7656 7.18066C18.7659 6.49377 19.3228 5.93652 20.0098 5.93652ZM3.96777 5.94727C4.64904 5.94727 5.20198 6.49945 5.20215 7.18066C5.20215 7.86201 4.64914 8.41504 3.96777 8.41504C3.28655 8.41486 2.73438 7.86191 2.73438 7.18066C2.73455 6.49956 3.28666 5.94744 3.96777 5.94727ZM23.2295 6.62402C23.537 6.62424 23.786 6.87318 23.7861 7.18066C23.7861 7.48829 23.5371 7.73807 23.2295 7.73828C22.9218 7.73828 22.6719 7.48842 22.6719 7.18066C22.672 6.87304 22.9219 6.62402 23.2295 6.62402ZM0.764648 6.65039C1.05743 6.65039 1.29472 6.88793 1.29492 7.18066C1.29492 7.47356 1.05755 7.71094 0.764648 7.71094C0.471778 7.71089 0.234375 7.47354 0.234375 7.18066C0.234578 6.88796 0.471903 6.65044 0.764648 6.65039ZM10.3857 2.54102C11.1769 2.54102 11.8184 3.18241 11.8184 3.97363C11.8183 4.76481 11.1769 5.40625 10.3857 5.40625C9.59455 5.40622 8.95317 4.7648 8.95312 3.97363C8.95312 3.18243 9.59452 2.54105 10.3857 2.54102ZM13.6045 2.54102C14.3958 2.54102 15.0371 3.18241 15.0371 3.97363C15.0371 4.76481 14.3958 5.40625 13.6045 5.40625C12.8133 5.40625 12.1719 4.76481 12.1719 3.97363C12.1719 3.18242 12.8133 2.54102 13.6045 2.54102ZM16.8145 2.7373C17.4972 2.73733 18.0507 3.29094 18.0508 3.97363C18.0508 4.6564 17.4972 5.20993 16.8145 5.20996C16.1317 5.20996 15.5781 4.65642 15.5781 3.97363C15.5782 3.29092 16.1317 2.7373 16.8145 2.7373ZM7.1709 2.74023C7.85219 2.74023 8.40516 3.29237 8.40527 3.97363C8.40527 4.65499 7.85226 5.20801 7.1709 5.20801C6.48968 5.20783 5.9375 4.65488 5.9375 3.97363C5.93761 3.29248 6.48975 2.74041 7.1709 2.74023ZM20.001 3.20703C20.424 3.20723 20.7666 3.5506 20.7666 3.97363C20.7666 4.39667 20.424 4.74003 20.001 4.74023C19.5778 4.74023 19.2344 4.3968 19.2344 3.97363C19.2344 3.55047 19.5778 3.20703 20.001 3.20703ZM3.96582 3.22559C4.37861 3.22559 4.71387 3.56084 4.71387 3.97363C4.71376 4.38633 4.37855 4.7207 3.96582 4.7207C3.55326 4.72051 3.21885 4.38621 3.21875 3.97363C3.21875 3.56096 3.5532 3.22578 3.96582 3.22559ZM0.768555 3.7666C0.882534 3.7666 0.975586 3.85965 0.975586 3.97363C0.975364 4.08742 0.882396 4.17969 0.768555 4.17969C0.654861 4.17951 0.562723 4.08732 0.5625 3.97363C0.5625 3.85976 0.654724 3.76678 0.768555 3.7666ZM23.2217 3.7666C23.3357 3.7666 23.4287 3.85965 23.4287 3.97363C23.4285 4.08742 23.3355 4.17969 23.2217 4.17969C23.108 4.17951 23.0158 4.08732 23.0156 3.97363C23.0156 3.85976 23.1078 3.76677 23.2217 3.7666ZM10.3916 0C10.8146 0.000216848 11.1572 0.34357 11.1572 0.766602C11.1571 1.18951 10.8145 1.53201 10.3916 1.53223C9.96854 1.53223 9.62514 1.18965 9.625 0.766602C9.625 0.343437 9.96845 0 10.3916 0ZM13.5947 0C14.0177 0.000230234 14.3604 0.343579 14.3604 0.766602C14.3602 1.18951 14.0176 1.532 13.5947 1.53223C13.1717 1.53223 12.8283 1.18965 12.8281 0.766602C12.8281 0.343437 13.1716 0 13.5947 0ZM16.792 0.224609C17.0914 0.224609 17.334 0.467255 17.334 0.766602C17.3338 1.0658 17.0913 1.30859 16.792 1.30859C16.4928 1.30859 16.2502 1.06579 16.25 0.766602C16.25 0.467257 16.4927 0.224614 16.792 0.224609ZM7.1709 0.236328C7.46381 0.236328 7.70117 0.473696 7.70117 0.766602C7.70103 1.05939 7.46372 1.29688 7.1709 1.29688C6.87813 1.29683 6.64077 1.05936 6.64062 0.766602C6.64062 0.473723 6.87804 0.236372 7.1709 0.236328ZM3.97168 0.55957C4.08551 0.55957 4.17846 0.651858 4.17871 0.765625C4.17871 0.879602 4.08566 0.972656 3.97168 0.972656C3.85785 0.972484 3.76562 0.879495 3.76562 0.765625C3.76587 0.651965 3.858 0.559743 3.97168 0.55957ZM20.0029 0.55957C20.1167 0.55957 20.2097 0.651858 20.21 0.765625C20.21 0.879602 20.1168 0.972656 20.0029 0.972656C19.8891 0.972457 19.7969 0.879479 19.7969 0.765625C19.7971 0.651981 19.8893 0.55977 20.0029 0.55957Z" fill="#DCDCDC"/>
</g>
<defs>
<clipPath id="clip0_124_146">
<rect width="24" height="24" fill="white"/>
</clipPath>
</defs>
</svg>
